#define 016495484df4476fdc13b07be5d9afb6MEmktA6PPvjq1htP_width 128
#define 016495484df4476fdc13b07be5d9afb6MEmktA6PPvjq1htP_height 85
static char 016495484df4476fdc13b07be5d9afb6MEmktA6PPvjq1htP_bits[] = {
  0x00, 0x00, 0x00, 0x00, 0x00, 0x00, 0x00, 0x00, 0x00, 0x00, 0x00, 0x00, 
  0x00, 0x00, 0x00, 0x00, 0x00, 0x00, 0x00, 0x00, 0x00, 0x00, 0x00, 0x00, 
  0x00, 0x00, 0x00, 0x00, 0x00, 0x00, 0x00, 0x00, 0x00, 0x00, 0x00, 0x00, 
  0x00, 0x00, 0x00, 0x00, 0x00, 0x00, 0x00, 0x00, 0x00, 0x00, 0x00, 0x00, 
  0x00, 0x00, 0x00, 0x00, 0x00, 0x00, 0x00, 0x00, 0x00, 0x00, 0x00, 0x00, 
  0x00, 0x00, 0x00, 0x00, 0x00, 0x00, 0x00, 0x00, 0x00, 0x00, 0x00, 0xC0, 
  0x00, 0x00, 0x00, 0x00, 0x80, 0x01, 0x00, 0x00, 0x00, 0x00, 0x00, 0x00, 
  0x00, 0x00, 0x00, 0xE0, 0x03, 0x00, 0x00, 0x00, 0xE0, 0x01, 0x00, 0x00, 
  0x00, 0x00, 0x00, 0x00, 0x00, 0x00, 0x00, 0xE0, 0x07, 0x00, 0x00, 0x00, 
  0xF0, 0x01, 0x00, 0x00, 0x00, 0x00, 0x00, 0x00, 0x00, 0x00, 0x00, 0xE0, 
  0x0F, 0x00, 0x00, 0x00, 0xFC, 0x01, 0x00, 0x00, 0x00, 0x00, 0x00, 0x00, 
  0x00, 0x00, 0x00, 0xE0, 0x3F, 0x00, 0x00, 0x00, 0x7E, 0x03, 0x00, 0x00, 
  0x00, 0x00, 0x00, 0x00, 0x00, 0x00, 0x00, 0x30, 0x7F, 0x00, 0x00, 0x00, 
  0x7F, 0x03, 0x00, 0x00, 0x00, 0x00, 0x00, 0x00, 0x00, 0x00, 0x00, 0x30, 
  0xFF, 0x00, 0x00, 0x80, 0x7F, 0x03, 0x00, 0x00, 0x00, 0x00, 0x00, 0x00, 
  0x00, 0x00, 0x00, 0x30, 0xFF, 0x00, 0x00, 0xC0, 0x3F, 0x03, 0x00, 0x00, 
  0x00, 0x00, 0x00, 0x00, 0x00, 0x00, 0x00, 0x70, 0xFE, 0x01, 0x14, 0xC0, 
  0x3F, 0x03, 0x00, 0x00, 0x00, 0x00, 0x00, 0x00, 0x00, 0x00, 0x00, 0x30, 
  0xFC, 0xFD, 0xFF, 0xFF, 0x1F, 0x03, 0x00, 0x00, 0x00, 0x00, 0x00, 0x00, 
  0x00, 0x00, 0x00, 0x30, 0xFC, 0xFF, 0xFF, 0xFF, 0x0F, 0x03, 0x00, 0x00, 
  0x00, 0x00, 0x00, 0x00, 0x00, 0x00, 0x00, 0x30, 0xF0, 0x0F, 0x7E, 0xE0, 
  0x07, 0x03, 0x00, 0x00, 0x00, 0x00, 0x00, 0x00, 0x00, 0x00, 0x00, 0x30, 
  0x22, 0x80, 0x3C, 0x00, 0x24, 0x03, 0x00, 0x00, 0x00, 0x00, 0x00, 0x00, 
  0x00, 0x00, 0x00, 0x70, 0x04, 0x20, 0x3C, 0x00, 0x00, 0x03, 0x00, 0x00, 
  0x00, 0x00, 0x00, 0x00, 0x00, 0x00, 0x00, 0x30, 0x00, 0x00, 0x3C, 0x11, 
  0x00, 0x07, 0x00, 0x00, 0x00, 0x00, 0x00, 0x00, 0x40, 0x00, 0x00, 0x30, 
  0x80, 0x00, 0x18, 0x00, 0x01, 0x03, 0x00, 0x00, 0x00, 0x00, 0x00, 0x80, 
  0xF0, 0x07, 0x00, 0x30, 0x08, 0x3C, 0x18, 0x00, 0x10, 0x03, 0x00, 0x00, 
  0x00, 0x00, 0x00, 0xFE, 0xFF, 0x1F, 0x00, 0x30, 0x40, 0x6E, 0x10, 0x01, 
  0x00, 0x03, 0x00, 0x00, 0x00, 0x00, 0x80, 0xFF, 0xFF, 0x7F, 0x00, 0x30, 
  0x00, 0xC3, 0x00, 0x10, 0x00, 0x03, 0x00, 0x00, 0x00, 0x00, 0xE0, 0x03, 
  0xF8, 0xFF, 0x00, 0x70, 0x80, 0xC3, 0x04, 0x00, 0x04, 0x03, 0x00, 0x00, 
  0x00, 0x00, 0x70, 0x00, 0xF8, 0xFF, 0x01, 0x60, 0x80, 0xC0, 0x00, 0xE8, 
  0x07, 0x03, 0x00, 0x00, 0x00, 0x00, 0x38, 0x00, 0xF0, 0xFF, 0x03, 0x70, 
  0x82, 0x80, 0x21, 0x70, 0x01, 0x03, 0x00, 0x00, 0x00, 0x00, 0x1C, 0x00, 
  0xE0, 0xFF, 0x03, 0xE0, 0x80, 0x80, 0x02, 0x18, 0x80, 0x03, 0x00, 0x00, 
  0x00, 0x00, 0x0E, 0x00, 0x00, 0x36, 0x00, 0xE0, 0x07, 0xC4, 0x00, 0x0C, 
  0x00, 0x03, 0x00, 0x00, 0x00, 0x00, 0x06, 0x00, 0x00, 0x00, 0x00, 0xE0, 
  0x07, 0xC0, 0x00, 0x04, 0x80, 0x03, 0x00, 0x00, 0x00, 0x00, 0x03, 0x00, 
  0x00, 0x00, 0x00, 0xE0, 0x00, 0xFA, 0xBB, 0xBF, 0xF0, 0x01, 0x00, 0x00, 
  0x00, 0x00, 0x03, 0x00, 0x00, 0x00, 0x00, 0xE0, 0x10, 0xFF, 0xFF, 0xFF, 
  0xC5, 0x01, 0x00, 0x00, 0x00, 0x00, 0x03, 0x00, 0x00, 0x00, 0x00, 0xFE, 
  0x08, 0x40, 0x00, 0x02, 0x80, 0x01, 0x00, 0x00, 0x00, 0x80, 0x01, 0x00, 
  0x00, 0x00, 0xC0, 0xFF, 0x0B, 0x60, 0x00, 0x02, 0xC0, 0x00, 0x00, 0x00, 
  0x00, 0x80, 0x01, 0x00, 0x00, 0x00, 0xF0, 0xC7, 0x47, 0x60, 0x40, 0x03, 
  0xD0, 0x00, 0x00, 0x00, 0x00, 0x80, 0x01, 0x00, 0x00, 0x00, 0x7E, 0x92, 
  0x01, 0x30, 0x04, 0x86, 0xF0, 0x00, 0x00, 0x00, 0x00, 0x80, 0x01, 0x00, 
  0x00, 0x80, 0x9F, 0xA8, 0x01, 0x30, 0x02, 0x16, 0x64, 0x00, 0x00, 0x00, 
  0x00, 0x80, 0x01, 0x00, 0x00, 0xE0, 0xBF, 0xA5, 0x13, 0xF9, 0xFF, 0x0F, 
  0x60, 0x00, 0x00, 0x00, 0x00, 0x80, 0x01, 0x00, 0x00, 0xF8, 0x3F, 0x89, 
  0x07, 0x70, 0x6A, 0x07, 0x74, 0x00, 0x00, 0x00, 0x00, 0x80, 0x01, 0x00, 
  0x00, 0xFC, 0x7F, 0x50, 0x47, 0xE0, 0x81, 0x01, 0x30, 0x00, 0x00, 0x00, 
  0x00, 0x80, 0x01, 0x00, 0x00, 0x1F, 0xBF, 0xF6, 0xFF, 0x80, 0xE3, 0xC0, 
  0xFF, 0x03, 0x00, 0x00, 0x00, 0x80, 0x01, 0x00, 0xC0, 0x5F, 0x7E, 0xE8, 
  0x4F, 0x00, 0x3E, 0x81, 0x19, 0x00, 0x00, 0x00, 0x00, 0x00, 0x01, 0x00, 
  0xF0, 0x9F, 0x79, 0x13, 0x1C, 0x00, 0x1C, 0x00, 0x1C, 0x00, 0x00, 0x00, 
  0x00, 0x00, 0x03, 0x00, 0x78, 0xBE, 0x71, 0xE4, 0xFF, 0x12, 0x77, 0xC0, 
  0xFF, 0x03, 0x00, 0x00, 0x00, 0x00, 0x03, 0x00, 0xBC, 0x71, 0xCC, 0xF2, 
  0x7F, 0x80, 0xE1, 0x88, 0xBF, 0x02, 0x00, 0x00, 0x00, 0x00, 0x07, 0x00, 
  0x1F, 0x64, 0x12, 0x03, 0x38, 0xC1, 0x80, 0x01, 0x06, 0x00, 0x00, 0x00, 
  0x00, 0x00, 0x06, 0x80, 0x5F, 0x03, 0xCA, 0x58, 0x75, 0x00, 0x00, 0x00, 
  0x03, 0x00, 0x00, 0x00, 0x00, 0x00, 0x06, 0xC0, 0x9F, 0x68, 0x24, 0x98, 
  0xE6, 0x00, 0x06, 0x84, 0x03, 0x00, 0x00, 0x00, 0x00, 0x00, 0x0C, 0xF0, 
  0x3C, 0x8A, 0x51, 0x23, 0xD0, 0x01, 0x00, 0xC0, 0x01, 0x00, 0x00, 0x00, 
  0x00, 0x00, 0x1C, 0x78, 0xBA, 0xA1, 0x30, 0x51, 0xC3, 0x03, 0x10, 0xC0, 
  0x00, 0x00, 0x00, 0x00, 0x00, 0x00, 0x18, 0xBC, 0x08, 0x9C, 0x86, 0x14, 
  0x98, 0x07, 0x80, 0x70, 0x00, 0x00, 0x00, 0x00, 0x00, 0x00, 0x30, 0x0E, 
  0x53, 0x0E, 0x52, 0xC6, 0x19, 0x0E, 0x00, 0x38, 0x00, 0x00, 0x00, 0x00, 
  0x00, 0x00, 0x30, 0x67, 0x44, 0x6E, 0x49, 0x11, 0xC4, 0x3E, 0x04, 0x1C, 
  0x00, 0x00, 0x00, 0x00, 0x00, 0x00, 0xE0, 0x93, 0x31, 0x6F, 0x49, 0x8C, 
  0x0A, 0x3E, 0x00, 0x0E, 0x00, 0x00, 0x00, 0x00, 0x00, 0x00, 0xE0, 0x25, 
  0x8C, 0x06, 0x94, 0x31, 0x68, 0xF0, 0x00, 0x07, 0x00, 0x00, 0x00, 0x00, 
  0x00, 0x00, 0xE0, 0x61, 0x82, 0x96, 0x86, 0x89, 0xC3, 0xE9, 0xC1, 0x03, 
  0x00, 0x00, 0x00, 0x00, 0x00, 0x00, 0xF0, 0x0F, 0x34, 0x57, 0x30, 0xA2, 
  0x18, 0xC9, 0xF7, 0x01, 0x00, 0x00, 0x00, 0x00, 0x00, 0x00, 0x38, 0xD7, 
  0xCB, 0x26, 0x13, 0x13, 0x61, 0xB0, 0x7F, 0x00, 0x00, 0x00, 0x00, 0x00, 
  0x00, 0x00, 0xBC, 0x0F, 0x10, 0xAF, 0x68, 0x48, 0x0C, 0x06, 0xFE, 0x00, 
  0x00, 0x00, 0x00, 0x00, 0x00, 0x00, 0x4E, 0x9E, 0x56, 0x43, 0x45, 0x69, 
  0x96, 0x53, 0xBA, 0x01, 0x00, 0x00, 0x00, 0x00, 0x00, 0x00, 0x16, 0xFC, 
  0xFF, 0x3F, 0x12, 0x24, 0x50, 0x48, 0xCA, 0x03, 0x00, 0x00, 0x00, 0x00, 
  0x00, 0x00, 0x87, 0xFF, 0xFF, 0xFF, 0xAF, 0xA6, 0x29, 0x21, 0x81, 0x07, 
  0x00, 0x00, 0x00, 0x00, 0x00, 0x80, 0xAB, 0xFF, 0xFF, 0xE7, 0xFF, 0x81, 
  0xA2, 0x9C, 0xF4, 0x0F, 0x00, 0x00, 0x00, 0x00, 0x00, 0xC0, 0xE3, 0xC3, 
  0xFF, 0x07, 0xF8, 0x3F, 0x05, 0x86, 0xE6, 0x1D, 0x00, 0x00, 0x00, 0x00, 
  0x00, 0xE0, 0xF8, 0x80, 0xFF, 0x07, 0x00, 0xFF, 0xD5, 0x30, 0x62, 0x38, 
  0x00, 0x00, 0x00, 0x00, 0x00, 0xF0, 0x38, 0x00, 0xFF, 0x07, 0x00, 0xE0, 
  0x9F, 0x88, 0x92, 0x78, 0x00, 0x00, 0x00, 0x00, 0x00, 0x30, 0x1F, 0x00, 
  0xFE, 0x07, 0x00, 0x00, 0x7E, 0x6A, 0x9A, 0xF9, 0x00, 0x00, 0x00, 0x00, 
  0x00, 0xB8, 0x0E, 0x00, 0xFC, 0x0F, 0x00, 0x00, 0xF8, 0x23, 0x04, 0xFC, 
  0x00, 0x00, 0x00, 0x00, 0x00, 0x1C, 0x07, 0x00, 0xF8, 0x0F, 0x00, 0x00, 
  0xC0, 0x9F, 0x69, 0xAF, 0x03, 0x00, 0x00, 0x00, 0x00, 0x9C, 0x03, 0x00, 
  0xE0, 0x1F, 0x00, 0x00, 0x00, 0x7E, 0x80, 0x52, 0x03, 0x00, 0x00, 0x00, 
  0x00, 0xAE, 0x03, 0x00, 0xC0, 0xBF, 0x01, 0x00, 0x00, 0xF0, 0x37, 0x24, 
  0x07, 0x00, 0x00, 0x00, 0x00, 0x87, 0x01, 0x00, 0x80, 0xFF, 0x0F, 0x00, 
  0x00, 0xC0, 0x8F, 0xC3, 0x0C, 0x00, 0x00, 0x00, 0x00, 0xD7, 0x01, 0x00, 
  0x00, 0xFF, 0x1F, 0x00, 0x00, 0x00, 0x3E, 0x18, 0x1E, 0x00, 0x00, 0x00, 
  0x80, 0xE3, 0x00, 0x00, 0x00, 0xFC, 0x1F, 0x00, 0x00, 0x00, 0xF8, 0x68, 
  0x34, 0x00, 0x00, 0x00, 0xC0, 0xC9, 0x00, 0x00, 0x00, 0xF0, 0x1F, 0x00, 
  0x00, 0x00, 0xE0, 0x07, 0x79, 0x00, 0x00, 0x00, 0xC0, 0xD9, 0x00, 0x00, 
  0x00, 0x00, 0x00, 0x00, 0x00, 0x00, 0x80, 0x9F, 0xE8, 0x07, 0x00, 0x00, 
  0xE0, 0xE4, 0x00, 0x00, 0x00, 0x00, 0x00, 0x00, 0x00, 0x00, 0x00, 0x7E, 
  0xC3, 0x3F, 0x00, 0x00, 0x60, 0x52, 0x00, 0x00, 0x00, 0x00, 0x00, 0x00, 
  0x00, 0x00, 0x00, 0xF0, 0x8A, 0xFA, 0x00, 0x00, 0xB0, 0xEA, 0x00, 0x00, 
  0x00, 0x00, 0x00, 0x00, 0x00, 0x00, 0x00, 0xC0, 0xA7, 0xC8, 0x01, 0x00, 
  0xF0, 0xFF, 0x00, 0x00, 0x00, 0x00, 0x00, 0x00, 0x00, 0x00, 0x00, 0x00, 
  0x1F, 0xC3, 0x03, 0x00, 0xF0, 0xFF, 0x00, 0x00, 0x00, 0x00, 0x00, 0x00, 
  0x00, 0x00, 0x00, 0x00, 0x7C, 0x18, 0x03, 0x00, 0x00, 0x00, 0x00, 0x00, 
  0x00, 0x00, 0x00, 0x00, 0x00, 0x00, 0x00, 0x00, 0xF0, 0xFF, 0x07, 0x00, 
  0x00, 0x00, 0x00, 0x00, 0x00, 0x00, 0x00, 0x00, 0x00, 0x00, 0x00, 0x00, 
  0xE0, 0xFF, 0x07, 0x00, 0x00, 0x00, 0x00, 0x00, 0x00, 0x00, 0x00, 0x00, 
  0x00, 0x00, 0x00, 0x00, 0x00, 0x00, 0x00, 0x00, 0x00, 0x00, 0x00, 0x00, 
  0x00, 0x00, 0x00, 0x00, 0x00, 0x00, 0x00, 0x00, 0x00, 0x00, 0x00, 0x00, 
  0x00, 0x00, 0x00, 0x00, 0x00, 0x00, 0x00, 0x00, 0x00, 0x00, 0x00, 0x00, 
  0x00, 0x00, 0x00, 0x00, };
